<?xml version="1.0" encoding="UTF-8" standalone="no"?>
<!-- Created with Inkscape (http://www.inkscape.org/) -->

<svg
   xmlns:dc="http://purl.org/dc/elements/1.1/"
   xmlns:cc="http://creativecommons.org/ns#"
   xmlns:rdf="http://www.w3.org/1999/02/22-rdf-syntax-ns#"
   xmlns:svg="http://www.w3.org/2000/svg"
   xmlns="http://www.w3.org/2000/svg"
   xmlns:xlink="http://www.w3.org/1999/xlink"
   xmlns:sodipodi="http://sodipodi.sourceforge.net/DTD/sodipodi-0.dtd"
   xmlns:inkscape="http://www.inkscape.org/namespaces/inkscape"
   width="512"
   height="512"
   id="svg4585"
   version="1.1"
   inkscape:version="0.48.2 r9819"
   sodipodi:docname="icon_launcher.svg"
   inkscape:export-filename="/home/zhuowei/Documents/repos/mcpelauncher/res/drawable-ldpi/ic_launcher.png"
   inkscape:export-xdpi="5.625"
   inkscape:export-ydpi="5.625">
  <defs
     id="defs4587">
    <clipPath
       clipPathUnits="userSpaceOnUse"
       id="clipPath1310">
      <path
         inkscape:connector-curvature="0"
         d="M 0,96 96,96 96,0 0,0 0,96 z"
         id="path1312" />
    </clipPath>
    <filter
       color-interpolation-filters="sRGB"
       inkscape:label="Black outline"
       inkscape:menu="ABCs"
       inkscape:menu-tooltip="Draws a black outline around"
       id="filter4961">
      <feGaussianBlur
         result="result0"
         in="SourceAlpha"
         stdDeviation="2"
         id="feGaussianBlur4963" />
      <feComposite
         k3="10"
         k2="1"
         in="SourceGraphic"
         operator="arithmetic"
         result="result3"
         in2="result0"
         id="feComposite4965" />
      <feComposite
         result="result4"
         in="result3"
         operator="in"
         k2="1"
         in2="result3"
         id="feComposite4967" />
    </filter>
    <linearGradient
       y2="534.85809"
       x2="143.1814"
       y1="654.73798"
       x1="143.1814"
       gradientUnits="userSpaceOnUse"
       id="linearGradient4841"
       xlink:href="#linearGradient3353"
       inkscape:collect="always" />
    <linearGradient
       y2="534.85809"
       x2="143.1814"
       y1="654.73798"
       x1="143.1814"
       gradientUnits="userSpaceOnUse"
       id="linearGradient4774"
       xlink:href="#linearGradient3353"
       inkscape:collect="always" />
    <filter
       color-interpolation-filters="sRGB"
       inkscape:label="Black outline"
       inkscape:menu="ABCs"
       inkscape:menu-tooltip="Draws a black outline around"
       id="filter4766">
      <feGaussianBlur
         result="result0"
         in="SourceAlpha"
         stdDeviation="2"
         id="feGaussianBlur4768" />
      <feComposite
         k4="0"
         k1="0"
         k3="10"
         k2="1"
         in="SourceGraphic"
         operator="arithmetic"
         result="result3"
         in2="result0"
         id="feComposite4770" />
      <feComposite
         result="result4"
         in="result3"
         operator="in"
         in2="result3"
         id="feComposite4772" />
    </filter>
    <filter
       color-interpolation-filters="sRGB"
       inkscape:label="Black outline"
       inkscape:menu="ABCs"
       inkscape:menu-tooltip="Draws a black outline around"
       id="filter4758">
      <feGaussianBlur
         result="result0"
         in="SourceAlpha"
         stdDeviation="2"
         id="feGaussianBlur4760" />
      <feComposite
         k4="0"
         k1="0"
         k3="10"
         k2="1"
         in="SourceGraphic"
         operator="arithmetic"
         result="result3"
         in2="result0"
         id="feComposite4762" />
      <feComposite
         result="result4"
         in="result3"
         operator="in"
         in2="result3"
         id="feComposite4764" />
    </filter>
    <linearGradient
       y2="414.52481"
       x2="451.66629"
       y1="412.30426"
       x1="412.14731"
       gradientUnits="userSpaceOnUse"
       id="linearGradient4689"
       xlink:href="#linearGradient3713"
       inkscape:collect="always" />
    <linearGradient
       y2="534.85809"
       x2="143.1814"
       y1="654.73798"
       x1="143.1814"
       gradientUnits="userSpaceOnUse"
       id="linearGradient4579"
       xlink:href="#linearGradient3353"
       inkscape:collect="always" />
    <linearGradient
       y2="534.85809"
       x2="143.1814"
       y1="654.73798"
       x1="143.1814"
       gradientUnits="userSpaceOnUse"
       id="linearGradient4577"
       xlink:href="#linearGradient3353"
       inkscape:collect="always" />
    <linearGradient
       y2="534.85809"
       x2="143.1814"
       y1="654.73798"
       x1="143.1814"
       gradientUnits="userSpaceOnUse"
       id="linearGradient4575"
       xlink:href="#linearGradient3353"
       inkscape:collect="always" />
    <linearGradient
       y2="534.85809"
       x2="143.1814"
       y1="654.73798"
       x1="143.1814"
       gradientUnits="userSpaceOnUse"
       id="linearGradient4573"
       xlink:href="#linearGradient3353"
       inkscape:collect="always" />
    <linearGradient
       y2="534.85809"
       x2="143.1814"
       y1="654.73798"
       x1="143.1814"
       gradientUnits="userSpaceOnUse"
       id="linearGradient4571"
       xlink:href="#linearGradient3353"
       inkscape:collect="always" />
    <inkscape:perspective
       sodipodi:type="inkscape:persp3d"
       inkscape:vp_x="0 : 327.36899 : 1"
       inkscape:vp_y="0 : 1000 : 0"
       inkscape:vp_z="479.80899 : 327.36899 : 1"
       inkscape:persp3d-origin="239.9045 : 218.24599 : 1"
       id="perspective28" />
    <inkscape:perspective
       sodipodi:type="inkscape:persp3d"
       inkscape:vp_x="0 : 526.18109 : 1"
       inkscape:vp_y="0 : 1000 : 0"
       inkscape:vp_z="744.09448 : 526.18109 : 1"
       inkscape:persp3d-origin="372.04724 : 350.78739 : 1"
       id="perspective2783" />
    <linearGradient
       gradientUnits="userSpaceOnUse"
       y2="535.07886"
       x2="520.03998"
       y1="656.388"
       x1="520.03998"
       id="linearGradient2674"
       xlink:href="#linearGradient3353"
       inkscape:collect="always" />
    <linearGradient
       gradientTransform="translate(895.48654,4.2581206)"
       y2="125.0482"
       x2="317.72427"
       y1="353.60373"
       x1="317.72427"
       gradientUnits="userSpaceOnUse"
       id="linearGradient2613"
       xlink:href="#linearGradient3314"
       inkscape:collect="always" />
    <linearGradient
       gradientTransform="translate(895.48654,4.2581206)"
       y2="535.18597"
       x2="68.389832"
       y1="653.48999"
       x1="68.389832"
       gradientUnits="userSpaceOnUse"
       id="linearGradient2607"
       xlink:href="#linearGradient3367"
       inkscape:collect="always" />
    <linearGradient
       id="linearGradient3367">
      <stop
         id="stop3369"
         offset="0"
         style="stop-color:#ff00d0;stop-opacity:1" />
      <stop
         style="stop-color:#ff00d0;stop-opacity:1"
         offset="0.5"
         id="stop3371" />
      <stop
         style="stop-color:#ff00d0;stop-opacity:1"
         offset="0.50999999"
         id="stop3373" />
      <stop
         id="stop3375"
         offset="1"
         style="stop-color:#ff6ae2;stop-opacity:1" />
    </linearGradient>
    <linearGradient
       id="linearGradient3353">
      <stop
         style="stop-color:#20292b;stop-opacity:1"
         offset="0"
         id="stop3355" />
      <stop
         id="stop3363"
         offset="0.5"
         style="stop-color:#20292b;stop-opacity:1" />
      <stop
         id="stop3361"
         offset="0.50999999"
         style="stop-color:#31393b;stop-opacity:1" />
      <stop
         style="stop-color:#787d7f;stop-opacity:1"
         offset="1"
         id="stop3357" />
    </linearGradient>
    <linearGradient
       id="linearGradient3314">
      <stop
         style="stop-color:#ff11d0;stop-opacity:1;"
         offset="0"
         id="stop3316" />
      <stop
         style="stop-color:#ff4ddd;stop-opacity:1;"
         offset="1"
         id="stop3318" />
    </linearGradient>
    <linearGradient
       id="linearGradient3292">
      <stop
         style="stop-color:#8f9495;stop-opacity:1"
         offset="0"
         id="stop3294" />
      <stop
         style="stop-color:#222b2d;stop-opacity:1"
         offset="1"
         id="stop3296" />
    </linearGradient>
    <inkscape:perspective
       sodipodi:type="inkscape:persp3d"
       inkscape:vp_x="0 : 328.194 : 1"
       inkscape:vp_y="0 : 1000 : 0"
       inkscape:vp_z="585.47302 : 328.194 : 1"
       inkscape:persp3d-origin="292.73651 : 218.796 : 1"
       id="perspective32" />
    <inkscape:perspective
       id="perspective2469"
       inkscape:persp3d-origin="372.04724 : 350.78739 : 1"
       inkscape:vp_z="744.09448 : 526.18109 : 1"
       inkscape:vp_y="0 : 1000 : 0"
       inkscape:vp_x="0 : 526.18109 : 1"
       sodipodi:type="inkscape:persp3d" />
    <linearGradient
       inkscape:collect="always"
       xlink:href="#linearGradient3353"
       id="linearGradient3359"
       x1="232.97664"
       y1="656.388"
       x2="232.97664"
       y2="534.97424"
       gradientUnits="userSpaceOnUse" />
    <inkscape:perspective
       id="perspective34"
       inkscape:persp3d-origin="419.73599 : 218.796 : 1"
       inkscape:vp_z="839.47198 : 328.194 : 1"
       inkscape:vp_y="0 : 1000 : 0"
       inkscape:vp_x="0 : 328.194 : 1"
       sodipodi:type="inkscape:persp3d" />
    <linearGradient
       inkscape:collect="always"
       xlink:href="#linearGradient3367"
       id="linearGradient2782"
       gradientUnits="userSpaceOnUse"
       x1="77.234322"
       y1="653.55798"
       x2="77.234322"
       y2="535.28601"
       gradientTransform="translate(29.179,2.7308505e-6)" />
    <linearGradient
       inkscape:collect="always"
       xlink:href="#linearGradient3353"
       id="linearGradient2806"
       x1="143.1814"
       y1="654.73798"
       x2="143.1814"
       y2="534.85809"
       gradientUnits="userSpaceOnUse" />
    <linearGradient
       inkscape:collect="always"
       xlink:href="#linearGradient3292"
       id="linearGradient2812"
       gradientUnits="userSpaceOnUse"
       gradientTransform="translate(-612.73622,-68.331017)"
       x1="292.75"
       y1="-2.8303274e-14"
       x2="292.75"
       y2="420.03125" />
    <linearGradient
       inkscape:collect="always"
       xlink:href="#linearGradient3292"
       id="linearGradient2814"
       gradientUnits="userSpaceOnUse"
       gradientTransform="translate(-612.73621,-68.331017)"
       x1="292.75"
       y1="7.1270186e-08"
       x2="292.75"
       y2="420.03125" />
    <linearGradient
       inkscape:collect="always"
       xlink:href="#linearGradient3292"
       id="linearGradient2816"
       x1="239"
       y1="-1.3313255"
       x2="239"
       y2="416.73798"
       gradientUnits="userSpaceOnUse" />
    <linearGradient
       inkscape:collect="always"
       xlink:href="#linearGradient3314"
       id="linearGradient2818"
       x1="217.996"
       y1="343.01199"
       x2="217.996"
       y2="162.97421"
       gradientUnits="userSpaceOnUse" />
    <inkscape:perspective
       id="perspective2910"
       inkscape:persp3d-origin="372.04724 : 350.78739 : 1"
       inkscape:vp_z="744.09448 : 526.18109 : 1"
       inkscape:vp_y="0 : 1000 : 0"
       inkscape:vp_x="0 : 526.18109 : 1"
       sodipodi:type="inkscape:persp3d" />
    <filter
       color-interpolation-filters="sRGB"
       inkscape:label="Black outline"
       inkscape:menu="ABCs"
       inkscape:menu-tooltip="Draws a black outline around"
       id="filter4131">
      <feGaussianBlur
         result="result0"
         in="SourceAlpha"
         stdDeviation="2"
         id="feGaussianBlur4133" />
      <feComposite
         k4="0"
         k1="0"
         k3="10"
         k2="1"
         in="SourceGraphic"
         operator="arithmetic"
         result="result3"
         in2="result0"
         id="feComposite4135" />
      <feComposite
         result="result4"
         in="result3"
         operator="in"
         in2="result3"
         id="feComposite4137" />
    </filter>
    <inkscape:perspective
       id="perspective10"
       inkscape:persp3d-origin="372.04724 : 350.78739 : 1"
       inkscape:vp_z="744.09448 : 526.18109 : 1"
       inkscape:vp_y="0 : 1000 : 0"
       inkscape:vp_x="0 : 526.18109 : 1"
       sodipodi:type="inkscape:persp3d" />
    <linearGradient
       id="linearGradient3713">
      <stop
         id="stop3715"
         offset="0"
         style="stop-color:#939393;stop-opacity:1;" />
      <stop
         style="stop-color:#393939;stop-opacity:1;"
         offset="0.0625"
         id="stop3729" />
      <stop
         style="stop-color:#3a3a3a;stop-opacity:1;"
         offset="0.125"
         id="stop3725" />
      <stop
         style="stop-color:#424242;stop-opacity:1;"
         offset="0.25"
         id="stop3723" />
      <stop
         style="stop-color:#343434;stop-opacity:1;"
         offset="0.396997"
         id="stop3721" />
      <stop
         id="stop3727"
         offset="0.72252184"
         style="stop-color:#9b9b9b;stop-opacity:1;" />
      <stop
         id="stop3717"
         offset="1"
         style="stop-color:#424242;stop-opacity:1;" />
    </linearGradient>
    <linearGradient
       inkscape:collect="always"
       xlink:href="#linearGradient3713"
       id="linearGradient3676"
       gradientUnits="userSpaceOnUse"
       x1="412.14731"
       y1="412.30426"
       x2="451.66629"
       y2="414.52481" />
  </defs>
  <sodipodi:namedview
     id="base"
     pagecolor="#ffffff"
     bordercolor="#666666"
     borderopacity="1.0"
     inkscape:pageopacity="0.0"
     inkscape:pageshadow="2"
     inkscape:zoom="1"
     inkscape:cx="407.91576"
     inkscape:cy="230.96793"
     inkscape:document-units="px"
     inkscape:current-layer="layer1"
     showgrid="false"
     inkscape:window-width="1280"
     inkscape:window-height="952"
     inkscape:window-x="0"
     inkscape:window-y="25"
     inkscape:window-maximized="1" />
  <metadata
     id="metadata4590">
    <rdf:RDF>
      <cc:Work
         rdf:about="">
        <dc:format>image/svg+xml</dc:format>
        <dc:type
           rdf:resource="http://purl.org/dc/dcmitype/StillImage" />
        <dc:title></dc:title>
      </cc:Work>
    </rdf:RDF>
  </metadata>
  <g
     inkscape:groupmode="layer"
     id="layer3"
     inkscape:label="Layer#1" />
  <g
     inkscape:groupmode="layer"
     id="layer2"
     inkscape:label="Layer" />
  <g
     inkscape:label="Layer 1"
     inkscape:groupmode="layer"
     id="layer1"
     transform="translate(0,-540.36218)">
    <path
       style="fill:none;stroke:#7caf00;stroke-width:3.89245701;stroke-linecap:butt;stroke-linejoin:miter;stroke-miterlimit:4;stroke-opacity:0;stroke-dasharray:none"
       d="m 252.69848,1000.9754 c -10.94965,0.866 -11.95202,-10.43929 -18.53547,-14.82821 -2.29908,-1.53287 -5.11516,-2.17443 -7.41424,-3.7073 -16.98272,-11.32162 15.75739,6.02536 -11.1213,-7.41394 -19.46211,-9.73104 8.34085,2.31678 -11.1213,-7.41426 -1.10523,-0.55275 -2.60183,0.55274 -3.7071,0 -1.56304,-0.78167 -2.14406,-2.92563 -3.7071,-3.70698 -1.10523,-0.55274 -2.60187,0.55243 -3.7071,0 -1.56304,-0.78166 -2.14403,-2.92563 -3.7071,-3.70729 -2.21049,-1.10517 -5.66664,1.74768 -7.4142,0 -0.87377,-0.87368 0.87375,-2.83329 0,-3.70729 -0.87377,-0.87368 -2.60187,0.55274 -3.7071,0 -1.56304,-0.78134 -2.14406,-2.92531 -3.70713,-3.70697 -2.96567,-1.48286 -8.15559,1.48285 -11.12127,0 -1.56307,-0.78135 -2.14409,-2.92531 -3.7071,-3.70698 -2.21049,-1.10516 -5.66668,1.74769 -7.41423,0 -0.87374,-0.87368 0.87378,-2.83361 0,-3.70729 -0.75784,-0.75794 -9.65143,0.73518 -11.1213,0 -1.56304,-0.78134 -2.14403,-2.92563 -3.7071,-3.70697 -1.10523,-0.55274 -2.83332,0.87368 -3.7071,0 -0.87378,-0.87368 1.10523,-3.15455 0,-3.70697 -2.21046,-1.10517 -5.06959,0.78134 -7.4142,0 -1.65785,-0.55275 -2.14403,-2.92563 -3.7071,-3.70729 -1.10523,-0.55243 -2.83332,0.87368 -3.7071,0 -0.87378,-0.87369 0.87378,-2.8333 0,-3.70698 -1.74752,-1.74768 -5.66668,1.74737 -7.4142,0 -0.87378,-0.874 0.87378,-2.83329 0,-3.70697 -1.74756,-1.74768 -5.66668,1.74736 -7.41423,0 -0.87375,-0.874 0.87381,-2.83361 0,-3.70729 -1.85352,-1.85349 -9.267721,1.85349 -11.121272,0 -0.873809,-0.87368 0.873745,-2.83329 0,-3.70729 -0.892052,-0.89196 -13.93638,0.89227 -14.828432,0 -0.873777,-0.87368 0.873777,-2.83297 0,-3.70697 -1.85355,-1.85349 -9.26775,1.85348 -11.1213,0 -0.873778,-0.87369 0.873777,-2.8333 0,-3.70698 -0.873778,-0.87368 -2.833324,0.87368 -3.707101,0 -0.873777,-0.87368 -0.873777,-2.83361 0,-3.70729 0.873777,-0.87368 2.471379,0 3.707101,0 6.17851,0 12.357021,0 18.5355,0 7.414232,0 14.828434,0 22.242634,0 3.7071,0 7.60442,-1.17217 11.1213,0 1.65788,0.55274 2.14406,2.92563 3.7071,3.70729 2.32999,1.16512 12.49841,-1.16512 14.8284,0 1.56307,0.78167 2.14406,2.92563 3.7071,3.70698 1.10526,0.55274 2.60187,-0.55243 3.7071,0 1.56307,0.78166 2.14406,2.92562 3.7071,3.70697 2.33871,1.16961 16.19683,-1.16897 18.53553,0 1.56304,0.78166 2.14403,2.92563 3.7071,3.70729 1.10527,0.55274 2.60184,-0.55274 3.70707,0 1.56307,0.78166 2.14409,2.92563 3.70713,3.70729 2.21046,1.10517 5.66665,-1.74768 7.4142,0 4.94279,4.94263 -6.17851,3.70697 3.7071,3.70697 1.23569,0 2.47141,0 3.7071,0 1.23569,0 2.60187,-0.55274 3.7071,0 1.56304,0.78135 2.14406,2.92563 3.7071,3.70698 1.10527,0.55274 2.60187,-0.55243 3.7071,0 1.56308,0.78166 2.14407,2.92562 3.7071,3.70729 2.33871,1.16929 16.19683,-1.16961 18.5355,0 1.56311,0.78134 2.14407,2.92563 3.70714,3.70697 2.21049,1.10517 5.66664,-1.74768 7.4142,0 0.87374,0.87368 -0.87381,2.83329 0,3.70697 1.74752,1.74768 5.66668,-1.74736 7.4142,0 0.87377,0.87368 -0.87378,2.83361 0,3.70729 1.74752,1.74769 5.66664,-1.74768 7.41417,0 0.8738,0.87369 1.23575,3.70698 0,3.70698 -1.74753,0 -2.25301,-2.73775 -3.70707,-3.70698 -3.34102,-7.35975 -10.27138,-1.42866 -14.8284,-3.70729 -3.12611,-1.56301 -4.28812,-5.85126 -7.41424,-7.41394 -2.21046,-1.10517 -5.01656,0.59923 -7.4142,0 -17.90135,-4.47549 0.18372,-1.76179 -11.1213,-7.41427 -1.10523,-0.55274 -2.53482,0.39052 -3.7071,0 -2.62129,-0.874 -4.7929,-2.83329 -7.4142,-3.70697 -1.1723,-0.39083 -2.60187,0.55242 -3.7071,0 -1.56304,-0.78166 -2.14403,-2.92563 -3.7071,-3.70729 -2.21049,-1.10517 -5.2037,1.10517 -7.4142,0 -1.56307,-0.78166 -2.14406,-2.92563 -3.7071,-3.70729 -1.4698,-0.73486 -10.36346,0.75794 -11.1213,0 -0.87377,-0.87368 0.87375,-2.83297 0,-3.70697 -1.74755,-1.74737 -5.20374,1.10548 -7.4142,0 -1.5631,-0.78135 -2.14406,-2.92531 -3.70713,-3.70698 -1.10523,-0.55274 -2.60184,0.55243 -3.7071,0 -1.56304,-0.78166 -2.14403,-2.92563 -3.7071,-3.70729 -1.10523,-0.55242 -2.83332,0.87368 -3.7071,0 -0.87374,-0.87368 0.87378,-2.83329 0,-3.70697 -7.67012,-7.67012 0.29978,11.72111 -7.4142,-3.70697 -0.55262,-1.10549 0.87378,-2.83361 0,-3.7073 -1.74755,-1.74736 -5.66665,1.74769 -7.4142,0 -0.87375,-0.87368 0.87378,-2.83329 0,-3.70697 -0.87375,-0.87381 -2.60184,0.55243 -3.7071,0 -1.56304,-0.7816 -2.14403,-2.92563 -3.7071,-3.70716 -1.10523,-0.55262 -2.83332,0.87381 -3.7071,0 -0.87378,-0.87378 0.87378,-2.83332 0,-3.7071 -0.87378,-0.87378 -2.60187,0.55261 -3.7071,0 -1.56304,-0.78151 -2.14406,-2.9256 -3.7071,-3.7071 -2.21049,-1.10526 -5.66668,1.74752 -7.41423,0 -0.87375,-0.87378 0.87381,-2.83332 0,-3.7071 -1.74753,-1.74756 -5.666649,1.74752 -7.414171,0 -4.942822,-4.94279 6.178481,-3.7071 -3.707101,-3.7071 -9.446301,0 -4.941058,-4.32407 -11.121332,-7.4142 -1.10523,-0.55262 -2.833323,0.87377 -3.7071,0 -0.873777,-0.87378 0.873777,-2.83333 0,-3.7071 -1.747554,-1.74756 -5.666646,1.74755 -7.4142,0 -0.873777,-0.87378 0.873777,-2.83336 0,-3.70713 -0.873777,-0.87375 -2.833323,0.87377 -3.7071,0 -0.873778,-0.87375 0,-2.47135 0,-3.7071 0,-1.23569 -0.873778,-2.8333 0,-3.70707 0.09266,-0.0927 17.142837,0 18.5355,0 6.178511,0 12.357022,0 18.535504,0 2.47141,0 5.01659,-0.5994 7.41423,0 17.90138,4.47533 -0.18371,1.76166 11.1213,7.41417 1.10523,0.55264 2.5348,-0.39074 3.7071,0 26.85208,8.95072 -5.84462,-1.06875 11.1213,7.41423 1.10526,0.55261 2.60187,-0.55262 3.7071,0 7.38127,3.69062 0.0327,3.72358 7.4142,7.4142 1.10526,0.55261 2.83336,-0.87375 3.7071,0 0.87378,0.87378 -0.87374,2.83332 0,3.7071 0.87378,0.87378 2.60187,-0.55262 3.7071,0 1.56307,0.78153 2.14403,2.92559 3.70713,3.7071 1.10523,0.55261 2.60184,-0.55262 3.7071,0 1.56304,0.7815 2.14406,2.92559 3.7071,3.7071 1.10523,0.55261 2.60184,-0.55262 3.7071,0 1.56304,0.78153 2.14403,2.92559 3.70707,3.7071 1.10526,0.55265 2.83336,-0.87378 3.70713,0 0.87378,0.87381 -0.87377,2.83335 0,3.70716 0.75785,0.75794 9.65147,-0.73498 11.1213,0 1.56307,0.78135 2.14406,2.92563 3.7071,3.70697 2.96568,1.48286 8.15563,-1.48285 11.1213,0 1.56308,0.78167 2.14407,2.92563 3.7071,3.7073 1.64958,0.82462 13.13285,-0.56525 14.8284,0 1.65788,0.55242 2.1441,2.92531 3.7071,3.70697 2.33871,1.16929 16.19683,-1.16929 18.53554,0 1.56304,0.78134 2.14406,2.92563 3.7071,3.70697 0.57031,0.28535 12.73724,-1.61591 7.4142,3.70729 -0.87378,0.87368 -2.50828,0.30138 -3.70713,0 -10.03419,6.30044 -9.58574,-5.66658 -14.82837,-7.41426 -2.34461,-0.78166 -4.94279,0 -7.4142,0 -2.47141,-1.23566 -4.94282,-2.47132 -7.41424,-3.70697 -4.94278,-2.47164 -9.58573,-5.66691 -14.8284,-7.41427 -1.17227,-0.3908 -2.60183,0.55243 -3.7071,0 -1.56307,-0.7816 -2.04922,-3.15451 -3.7071,-3.70716 -2.34457,-0.78151 -4.94282,0 -7.4142,0 -1.23569,0 -2.60187,0.55265 -3.7071,0 -1.56304,-0.78151 -2.14406,-2.92557 -3.7071,-3.7071 -1.10526,-0.55262 -2.60187,0.55261 -3.7071,0 -1.56307,-0.78151 -2.14406,-2.9256 -3.7071,-3.7071 -1.10523,-0.55262 -2.83332,0.87378 -3.70713,0 -0.87374,-0.87378 0.87381,-2.83332 0,-3.7071 -0.87374,-0.87378 -2.6018,0.55261 -3.70707,0 -3.12611,-1.56307 -4.50614,-5.4755 -7.4142,-7.4142 -3.38638,-2.25759 -8.99638,-3.16433 -11.12133,-7.4142 -0.55261,-1.10526 0.87378,-2.83336 0,-3.70713 -1.74752,-1.74753 -5.66665,1.74758 -7.4142,0 -0.87374,-0.87375 0.87378,-2.8333 0,-3.7071 -0.87374,-0.87375 -2.83332,0.8738 -3.7071,0 -0.87374,-0.87375 0.87378,-2.8333 0,-3.70707 -0.87374,-0.87378 -2.60184,0.55261 -3.7071,0 -16.96592,-8.48301 15.73078,1.53649 -11.1213,-7.4142 -1.1723,-0.39077 -2.83332,0.87374 -3.7071,0 -0.87378,-0.87381 0.87378,-2.83336 0,-3.7071 -0.87378,-0.87378 -2.83332,0.87374 -3.7071,0 -0.87378,-0.87378 0.87378,-2.83336 0,-3.70714 -7.67012,-7.67011 0.29978,11.72099 -7.4142,-3.7071 -0.55265,-1.10523 0.87378,-2.83332 0,-3.7071 -1.74756,-1.74755 -5.66668,1.74756 -7.41423,0 -0.87375,-0.87377 0.87381,-2.83329 0,-3.7071 -1.74753,-1.74755 -5.666649,1.74756 -7.414171,0 -0.873777,-0.87374 0.873745,-2.83335 0,-3.7071 -1.747555,-1.74755 -5.666679,1.74756 -7.414233,0 -0.873777,-0.87377 0.873809,-2.83332 0,-3.7071 -0.873777,-0.87377 -2.601837,0.55262 -3.7071,0 -1.563039,-0.78153 -2.144029,-2.92559 -3.7071,-3.7071 -1.10523,-0.55261 -2.601838,0.55262 -3.7071,0 -1.563039,-0.78153 -2.144061,-2.92559 -3.7071,-3.7071 -3.985877,-1.99292 -3.428324,1.99293 -7.4142,0 -1.56304,-0.7815 -2.144061,-2.92559 -3.707101,-3.70706 -1.10523,-0.55268 -2.833323,0.87374 -3.70709,0 -0.873793,-0.87385 -0.873793,-2.83339 0,-3.70714 0.873767,-0.87377 2.471401,0 3.70709,0 6.178511,0 12.35699,0 18.535501,0 7.4142,0 14.828433,0 22.242604,0 2.47141,0 5.06965,-0.7815 7.41423,0 1.65788,0.55262 2.04922,3.15446 3.7071,3.70714 16.87579,0 0.21193,-1.74759 11.1213,3.70706 3.49508,1.74753 7.99519,1.36253 11.1213,3.7071 2.21049,1.65788 1.75329,5.4604 3.7071,7.4142 1.95381,1.95384 5.11515,2.17443 7.4142,3.7071 2.90812,1.93874 4.50614,5.4755 7.4142,7.4142 2.29905,1.53271 4.7929,2.83333 7.41423,3.7071 2.04381,0.68132 14.03581,-0.79253 14.8284,0 0.87378,0.87378 -0.87377,2.83336 0,3.70714 0.75785,0.75784 9.65147,-0.73492 11.1213,0 1.56307,0.7815 2.14406,2.92556 3.7071,3.7071 1.10523,0.55258 2.60187,-0.55265 3.7071,0 1.56304,0.7815 2.14406,2.92556 3.7071,3.7071 1.10527,0.55261 2.60187,-0.55265 3.7071,0 1.56308,0.78153 2.14407,2.92556 3.7071,3.7071 1.10527,0.55261 2.83333,-0.87378 3.7071,0 0.87378,0.87377 -0.87377,2.83332 0,3.70707 0.87378,0.8738 2.60184,-0.55259 3.7071,0 1.56308,0.78153 2.14407,2.92559 3.7071,3.7071 2.2105,1.10526 5.20374,-1.10523 7.4142,0 1.56311,0.78153 2.14407,2.92559 3.70714,3.70713 9.88558,0 -1.23569,-1.23569 3.7071,3.7071 1.74755,1.74755 5.66664,-1.74756 7.4142,0 0.87377,0.87377 1.23569,3.7071 0,3.7071 -0.71514,0 -5.61423,-6.21426 -7.4142,-7.4142 -2.29908,-1.53268 -5.11516,-2.17439 -7.41424,-3.70713 -1.45402,-0.96936 -2.14402,-2.92557 -3.7071,-3.7071 -1.92924,-8.66971 -10.49116,-2.26135 -14.8284,-3.70707 -2.62129,-0.87378 -4.79286,-2.83336 -7.4142,-3.7071 -1.1723,-0.39077 -2.60183,0.55261 -3.7071,0 -1.56304,-0.78154 -2.25303,-2.73775 -3.7071,-3.7071 -2.29904,-1.53271 -5.11515,-2.17439 -7.4142,-3.7071 -1.45406,-0.96939 -2.14403,-2.9256 -3.7071,-3.70714 -1.10523,-0.55261 -2.60187,0.55265 -3.7071,0 -3.12611,-1.56303 -4.28809,-5.85116 -7.4142,-7.4142 -1.10526,-0.55258 -2.60187,0.55262 -3.7071,0 -1.56304,-0.7815 -2.14406,-2.92556 -3.7071,-3.7071 -1.10526,-0.55261 -2.60187,0.55265 -3.7071,0 -1.5631,-0.78153 -2.47141,-2.47141 -3.70713,-3.7071 -2.9129,-2.91293 -16.17419,-17.35486 -18.5355,-18.5355 -1.10523,-0.55261 -2.83332,0.87375 -3.7071,0 -0.87378,-0.87377 0.87378,-2.83335 0,-3.7071 -1.74752,-1.74755 -5.66665,1.74756 -7.4142,0 0,-9.88561 1.23569,1.23569 -3.7071,-3.7071 -0.87378,-0.87377 0.87378,-2.83332 0,-3.70713 -0.87378,-0.87374 -2.60187,0.55265 -3.7071,0 -1.56304,-0.7815 -2.47141,-2.47138 -3.7071,-3.7071 -1.23572,-1.23569 -2.14406,-2.92556 -3.7071,-3.7071 -2.21049,-1.10523 -5.66668,1.74756 -7.41423,0 -0.87375,-0.87378 0.87381,-2.83329 0,-3.70707 -1.74753,-1.74755 -5.666649,1.74752 -7.414171,0 -0.873777,-0.87377 0.873745,-2.83332 0,-3.70713 -0.757874,-0.75784 -9.651497,0.73495 -11.121333,0 -1.563039,-0.7815 -2.144029,-2.92556 -3.7071,-3.7071 -2.210461,-1.10523 -5.203707,1.10526 -7.4142,0 -1.563039,-0.7815 -2.144029,-2.92556 -3.7071,-3.70707 -2.210493,-1.10526 -5.666646,1.74752 -7.414201,0 -0.873777,-0.87381 0.873777,-2.83335 0,-3.7071 -0.873777,-0.87381 -2.833323,0.87375 -3.70709,0 -0.873793,-0.87381 0.873767,-2.83335 0,-3.70713 -0.873793,-0.87374 -2.833346,0.87378 -3.707119,0 -0.873774,-0.87374 0,-2.47141 0,-3.7071 0,-1.23569 -0.873774,-2.83332 0,-3.7071 0.873773,-0.87378 2.47141,0 3.707119,0 6.178469,0 12.357012,0 18.535491,0 7.4142,0 14.828432,0 22.242634,0 1.26291,0 12.82211,-0.66877 14.8284,0 26.85208,8.95069 -5.84465,-1.06878 11.1213,7.4142 1.10526,0.55262 2.47138,0 3.7071,0 2.47141,1.23569 5.11518,2.17442 7.4142,3.70713 1.45403,0.96936 2.14406,2.92557 3.7071,3.7071 2.21049,1.1052 5.20374,-1.10526 7.4142,0 1.56307,0.78151 2.14406,2.92557 3.7071,3.70707 1.10526,0.55262 2.47141,0 3.7071,0 1.23572,1.23572 2.14403,2.9256 3.70713,3.7071 2.96568,1.48285 8.15563,-1.48282 11.1213,0 1.56304,0.78154 2.14403,2.9256 3.70707,3.70713 1.10526,0.55262 2.6019,-0.55264 3.70713,0 1.56304,0.78151 2.14403,2.92557 3.7071,3.70707 1.46981,0.73495 10.36346,-0.75784 11.1213,0 0.87378,0.87381 -0.87374,2.83336 0,3.7071 1.74756,1.74756 5.66665,-1.74752 7.4142,0 0.87378,0.87381 -0.87377,2.83336 0,3.7071 1.85355,1.85358 9.26775,-1.85355 11.1213,0 0.87378,0.87381 -0.87377,2.83336 0,3.70713 0.87378,0.87375 2.60184,-0.55261 3.7071,0 1.56308,0.78151 2.14407,2.92557 3.7071,3.7071 2.2105,1.10523 5.20374,-1.10523 7.4142,0 1.56311,0.78154 2.14407,2.9256 3.70714,3.7071 1.10523,0.55262 2.83332,-0.87377 3.7071,0 0.87374,0.87375 -0.87378,2.83329 0,3.70714 1.74755,1.74749 5.2037,-1.1053 7.4142,0 1.56304,0.78147 2.14403,2.92556 3.7071,3.70706 2.21049,1.10527 5.66664,-1.74752 7.41417,0 0.8738,0.87378 1.10526,3.15449 0,3.7071 -7.28538,3.64272 -28.14061,-11.34621 -33.36391,-14.8284 -3.7071,-2.47141 -7.30083,-5.12195 -11.1213,-7.41423 -4.73871,-2.8432 -9.88561,-4.94279 -14.8284,-7.4142 -2.47141,-1.23569 -4.7929,-2.83329 -7.4142,-3.70707 -1.17227,-0.3908 -2.60187,0.55262 -3.7071,0 -1.56307,-0.78153 -2.14406,-2.92559 -3.7071,-3.70713 -1.10523,-0.55261 -2.60187,0.55265 -3.70713,0 -3.12608,-1.56304 -4.28806,-5.85113 -7.41417,-7.41417 -1.10526,-0.55264 -2.60187,0.55262 -3.7071,0 -0.98426,-0.49214 -10.62918,-10.13707 -11.12133,-11.12133 -0.55261,-1.10526 0.55265,-2.60187 0,-3.7071 -0.7815,-1.56304 -2.47138,-2.47138 -3.7071,-3.7071 -1.23569,-1.23569 -2.14403,-2.9256 -3.7071,-3.7071 -1.10523,-0.55262 -2.83332,0.87378 -3.7071,0 -7.67012,-7.67012 11.72095,0.29978 -3.7071,-7.41417 -2.21046,-1.10526 -5.66665,1.74752 -7.4142,0 -0.87375,-0.87381 0.87378,-2.83335 0,-3.70713 -0.87375,-0.87378 -2.83332,0.87378 -3.7071,0 -0.87378,-0.87378 0.87378,-2.83332 0,-3.7071 -0.87378,-0.87381 -2.60187,0.55265 -3.7071,0 -4.44853,-2.22428 -6.67277,-8.89705 -11.1213,-11.12133 -1.10523,-0.55262 -2.83336,0.87377 -3.7071,0 -0.87378,-0.87375 0.87374,-2.83333 0,-3.7071 -0.89205,-0.89202 -13.936381,0.89205 -14.828402,0 -0.873809,-0.87375 0.873745,-2.83329 0,-3.70707 -1.747554,-1.74756 -5.666678,1.74752 -7.414232,0 -0.873777,-0.87378 0.873809,-2.83332 0,-3.70713 -1.775351,-1.77539 -18.5355,3.44631 -18.5355,-3.70707 0,-1.23572 2.47141,0 3.7071,0 2.47141,0 4.942789,0 7.4142,0 11.1213,0 22.242634,0 33.363934,0 2.47138,0 5.06962,-0.78154 7.4142,0 1.65788,0.55261 2.25304,2.73771 3.7071,3.70707 4.59809,3.06541 10.23031,4.34881 14.8284,7.4142 2.90809,1.93873 4.28809,5.85119 7.4142,7.41423 2.21053,1.10523 5.20371,-1.10526 7.4142,0 1.56307,0.78153 2.14406,2.92556 3.7071,3.7071 1.10526,0.55261 2.60187,-0.55262 3.70713,0 1.56301,0.7815 2.14403,2.92556 3.7071,3.7071 2.56061,1.28029 17.23425,-1.30129 18.5355,0 0.87375,0.87378 -0.87377,2.83332 0,3.7071 0.87375,0.87378 2.60184,-0.55265 3.7071,0 1.56304,0.78154 2.14406,2.92556 3.7071,3.70713 1.10523,0.55258 2.60187,-0.55265 3.7071,0 3.12611,1.56301 4.28809,5.85113 7.4142,7.41417 1.10527,0.55261 2.60187,-0.55262 3.7071,0 1.56308,0.7815 2.14407,2.9256 3.7071,3.7071 1.10527,0.55265 2.60187,-0.55262 3.7071,0 1.56308,0.78154 2.14407,2.9256 3.7071,3.7071 2.96568,1.48282 8.15563,-1.48282 11.1213,0 1.56311,0.78154 2.14407,2.92556 3.70714,3.7071 2.21049,1.10526 5.2037,-1.10526 7.4142,0 1.56304,0.78154 2.14403,2.92556 3.7071,3.7071 2.21049,1.10526 5.66668,-1.74755 7.4142,0 4.94282,4.94282 -6.17851,3.70713 3.70707,3.70713 1.23575,0 4.94282,0 3.70713,0 -2.47138,0 -5.0696,0.78151 -7.4142,0 -1.65788,-0.55264 -2.47141,-2.47144 -3.7071,-3.70713 -2.47141,-2.47141 -4.61817,-5.31714 -7.4142,-7.4142 -2.2105,-1.65788 -5.11516,-2.17439 -7.4142,-3.7071 -1.45406,-0.96935 -2.25307,-2.73772 -3.70714,-3.7071 -2.29904,-1.53268 -5.11512,-2.17439 -7.4142,-3.7071 -1.45402,-0.96939 -2.14402,-2.9256 -3.7071,-3.70707 -2.21049,-1.10526 -5.2037,1.1052 -7.4142,0 -1.56303,-0.78157 -2.14402,-2.92559 -3.7071,-3.70713 -2.21046,-1.10526 -5.66661,1.74755 -7.4142,0 -0.87377,-0.87378 1.10527,-3.15445 0,-3.7071 -2.96567,-1.48285 -8.15562,1.48282 -11.1213,0 -1.56307,-0.78154 -2.14403,-2.9256 -3.7071,-3.7071 -1.10523,-0.55262 -2.83332,0.87378 -3.7071,0 -0.87377,-0.87381 0.87378,-2.83336 0,-3.7071 -1.74755,-1.74756 -5.66664,1.74755 -7.4142,0 -0.87377,-0.87378 0.87378,-2.83336 0,-3.70713 -0.87377,-0.87375 -2.60187,0.55264 -3.7071,0 -1.56304,-0.78154 -2.14406,-2.92557 -3.7071,-3.7071 -2.21049,-1.10523 -5.66664,1.74755 -7.41423,0 -0.87374,-0.87375 0.87378,-2.83329 0,-3.70707 -0.87374,-0.87378 -2.83332,0.87378 -3.7071,0 -0.87374,-0.87378 0.87378,-2.83332 0,-3.70713 -9.88561,0 1.23569,1.23569 -3.7071,-3.70707 -0.87378,-0.87381 -2.83332,0.87378 -3.7071,0 -0.87374,-0.87381 0.87378,-2.83336 0,-3.7071 -0.87374,-0.87381 -2.83332,0.87374 -3.7071,0 -0.87374,-0.87381 0.87378,-2.83336 0,-3.70713 -0.87374,-0.87378 -2.83332,0.87377 -3.7071,0 -0.87378,-0.87378 0.87378,-2.83333 0,-3.7071 -0.87378,-0.87375 -2.60187,0.55261 -3.7071,0 -1.56304,-0.78154 -2.14403,-2.92557 -3.7071,-3.7071 -1.10523,-0.55262 -2.83332,0.87377 -3.7071,0 -0.87378,-0.87378 0.87378,-2.83333 0,-3.7071 -0.87378,-0.87375 -2.47141,0 -3.7071,0 0,-1.23573 0.87378,-2.83333 0,-3.7071 -0.87378,-0.87378 -2.60187,0.55264 -3.7071,0 -1.56304,-0.78151 -2.14403,-2.92557 -3.7071,-3.7071 -2.01107,-1.00552 -13.81407,1.01433 -14.8284,0 -0.873778,-0.87378 0.87378,-2.83333 0,-3.7071 -3.656989,-3.65696 -7.414202,7.59611 -7.414202,-3.7071"
       id="path5477"
       inkscape:connector-curvature="0" />
    <path
       style="fill:#00ff00;stroke:#000000;stroke-width:1.29203308px;stroke-linecap:butt;stroke-linejoin:miter;stroke-opacity:1"
       d="M 260.69553,582.44762 53.620306,690.25026 264.7799,795.39165 468.61894,688.25234 z"
       id="path4652"
       inkscape:connector-curvature="0"
       sodipodi:nodetypes="ccccc" />
    <path
       style="fill:#d45500;stroke:#000000;stroke-width:1.29748571px;stroke-linecap:butt;stroke-linejoin:miter;stroke-opacity:1"
       d="m 53.126101,690.25026 0,251.41166 207.273849,105.99208 0,-254.92367 z"
       id="path4654"
       inkscape:connector-curvature="0"
       sodipodi:nodetypes="ccccc" />
    <path
       style="fill:#aa4400;stroke:#000000;stroke-width:1.29748571px;stroke-linecap:butt;stroke-linejoin:miter;stroke-opacity:1"
       d="m 467.67376,689.5752 0,252.45735 -207.27381,103.90035 0,-255.96927 z"
       id="path4654-9"
       inkscape:connector-curvature="0"
       sodipodi:nodetypes="ccccc" />
    <path
       style="fill:#803300;fill-opacity:1;stroke:none"
       id="path5483"
       d="m 475.06886,686.81315 c -8.06256,7.16037 -16.31937,14.10451 -24.55265,21.06918 -8.15454,6.83782 -16.90167,12.93644 -24.99234,19.84618 -4.97466,5.03032 -10.19651,9.78702 -15.5637,14.39197 -1.87943,0.22828 -4.64914,5.20131 -6.58146,4.64638 -1.18728,-0.34094 -1.169,-2.1867 -1.58417,-3.35015 1.88846,-3.52797 9.42039,-6.56479 13.18174,-8.21712 5.00974,-3.94208 11.34708,-4.33051 17.07926,-6.48906 3.76279,-2.74513 9.76275,-1.22819 13.07456,-4.23558 3.34381,-1.90443 7.20231,-2.9549 10.87231,-1.58282 8.00427,3.98463 2.71213,12.52073 -0.9496,17.52569 -9.04226,9.69359 -20.33185,16.86425 -30.85623,24.8092 -7.80516,6.00743 -15.87393,11.65609 -23.79041,17.51026 -2.14759,0.89103 -7.22628,6.31692 -9.40574,5.65354 -1.44544,-3.25991 -1.45394,-2.33634 0.51125,-3.14747 0.47448,-0.19589 0.75855,-0.715 1.22027,-0.93924 1.08048,-0.52473 3.39761,-0.90385 4.47591,-1.12143 5.6023,-2.51472 11.6683,-3.86952 17.74887,-4.55285 5.38043,0.18403 10.21417,-1.37089 15.35309,-2.60197 4.49155,-1.52729 9.47955,1.52566 8.37541,6.9327 -0.2286,1.11879 -1.29988,1.87773 -1.9498,2.81659 -23.30019,17.22591 -49.84044,29.71541 -75.08513,43.91928 12.52752,-7.19891 50.21725,-28.60588 37.58261,-21.59675 -16.57939,9.19747 -32.91469,18.82845 -49.41767,28.16228 -57.63889,32.59961 135.9922,-78.28899 -19.33566,10.80575 -17.99091,10.49648 3.45653,-2.02524 37.60389,-21.64395 6.8471,-3.93384 -6.27363,4.18075 -7.90586,4.9888 -3.81637,-4.92952 4.06898,-3.02374 7.12584,-2.97305 6.89762,0.0519 13.79665,0.0609 20.69386,-0.0385 6.5509,0.016 13.10171,-0.0256 19.65285,-0.033 5.45369,-0.003 10.90725,-0.0532 16.36095,-0.0574 6.33926,-0.46996 11.93499,1.72072 9.02712,9.34159 -2.73473,2.60662 -2.85352,2.98735 -6.40743,5.06863 -16.53806,9.68529 -100.58571,58.02652 -9.90472,5.78339 1.83653,-1.05804 -3.66071,2.13761 -5.50111,3.18895 -16.35351,9.34168 -32.72036,18.66002 -49.08054,27.99004 -43.08526,24.83363 146.23603,-84.56314 -14.62779,8.3597 -13.20117,7.62555 26.40992,-15.23815 39.63667,-22.81933 2.30697,-1.32229 -4.54362,2.76404 -6.79255,4.18274 -16.36166,11.62127 -33.6716,20.04349 -51.62505,30.41894 -14.2502,8.23568 28.45096,-16.55679 42.75118,-24.70497 1.10366,-0.62886 -2.01111,1.55281 -3.03762,2.301 -1.36756,0.41561 -0.98119,0.61087 -1.77314,-1.42828 -1.26153,-3.24817 1.10757,-2.59091 3.39437,-3.42381 1.14662,-0.41763 2.17766,-1.10193 3.26651,-1.65287 9.6126,-4.04154 18.90635,-8.72732 28.50957,-12.80573 7.38733,-2.66907 14.09607,-6.76761 21.95459,-7.96335 4.8996,-0.35752 10.48776,-1.99866 15.12779,0.0224 5.33045,4.96408 5.84956,9.24781 1.6933,15.35966 -19.83358,16.10023 -43.158,27.70848 -66.83466,37.14363 -6.74873,2.34563 -13.16212,5.46331 -19.91277,7.79676 -3.41547,2.77141 -7.66214,3.28504 -11.60496,4.7105 37.02692,-30.81869 30.89711,-30.20246 59.33092,-30.41872 6.68541,-0.0545 13.36908,-0.17794 20.05478,-0.19173 4.53349,-0.33956 9.21225,0.43858 13.72265,-0.21353 13.52718,21.26992 -28.04557,26.28661 -46.81115,34.09844 -3.50033,1.4572 -6.99153,3.12537 -10.37615,4.83746 -8.20763,2.19142 -15.79557,5.76726 -23.49551,9.2296 -5.33836,2.37609 -10.31908,5.50563 -15.63908,7.90032 -17.52318,6.99394 -36.40556,20.72948 36.32849,-21.63843 0.30041,-0.17634 -0.77634,0.50305 -1.01274,0.24688 -0.60872,-0.65631 -0.69971,-1.64733 -1.04957,-2.471 3.60066,-3.22733 11.75561,-2.62264 16.5514,-3.59507 9.3161,-1.9718 18.82255,-2.73968 28.29819,-3.47998 29.79495,-0.8102 20.84278,-5.37001 -29.56524,31.06681 -7.75626,1.75377 -15.47995,4.31999 -22.86084,7.33507 -7.3127,2.40238 -13.9528,6.22991 -20.64459,9.875 -0.74171,0.40366 -2.95656,1.63354 -2.2252,1.21129 14.10637,-8.14495 56.33632,-32.73081 42.35079,-24.38002 -17.37561,10.37516 -33.88119,21.28767 -52.11624,29.51951 25.08939,-20.26555 32.75556,-27.31559 55.84902,-33.83951 8.66217,-1.24559 16.974,-3.99584 25.51671,-5.79995 5.37956,-1.08657 10.84736,-1.2472 16.31029,-1.44374 17.83768,20.75256 -33.8337,28.28065 -52.59203,36.18321 -7.48541,2.46811 -15.20096,3.85862 -23.00798,4.74898 -3.74019,0.24046 -1.94108,0.13145 -5.3972,0.32863 0,0 41.89212,-30.84719 41.89212,-30.84719 l 0,0 c 3.23887,-0.23084 1.54749,-0.0802 5.07248,-0.47323 7.54937,-1.01796 14.98848,-2.82495 22.09149,-5.60759 13.21551,-4.50883 -5.00409,1.71338 6.95056,-2.38731 0.95527,-0.32767 3.72941,-1.50273 2.86891,-0.97403 -79.23593,48.67059 -48.79173,9.7724 -39.96127,29.82923 -5.177,0.17634 -10.32909,0.77364 -15.38153,1.9471 -8.41192,1.98526 -16.84203,3.89389 -25.23286,5.95033 -3.38219,0.96249 -7.11484,2.34146 -10.69014,2.32832 -3.19745,-0.0321 -5.48835,-1.40847 -5.21368,-1.63226 13.43747,-10.93881 27.87985,-20.58104 41.81982,-30.87188 1.08115,-0.53511 1.83765,-0.90029 2.92999,-1.48862 0.67195,-0.36198 2.66128,-1.49632 2.00139,-1.11254 -87.15337,50.6597 -23.0638,13.20589 6.55139,-3.75474 6.57957,-3.65504 13.68274,-6.32706 20.70527,-8.99266 7.8663,-2.74897 15.76406,-5.48512 23.9276,-7.22254 -46.72503,35.97129 -24.02532,29.41724 -53.47539,31.1444 -9.36166,0.647 -18.65807,1.87945 -27.85131,3.78552 -6.63642,0.9875 -15.08618,3.79001 -20.70425,-0.81148 -0.67586,-1.30683 -1.68061,-2.49023 -2.02752,-3.91986 -0.1337,-0.55114 0.21449,-1.25746 0.7002,-1.55018 20.28994,-12.22096 34.04537,-21.24472 52.84246,-29.63013 5.06389,-2.77045 10.31751,-5.21002 15.56505,-7.60888 7.62757,-3.5037 15.69407,-5.78553 23.34087,-9.23097 3.58014,-1.61206 7.21539,-3.15247 10.75744,-4.84565 0.92142,-0.44043 3.59767,-1.933 2.71774,-1.41459 -44.55673,26.24951 -52.24339,11.44278 -39.09788,30.33128 -4.20232,-0.99551 -8.90632,0.40174 -13.16356,-0.17313 -6.63123,0.0385 -13.26229,0.0321 -19.89335,0.0898 -30.45639,0.15069 -24.36236,0.83842 23.82353,-31.96931 3.94949,-0.99218 7.24463,-3.61749 11.17734,-4.69874 6.48275,-2.46362 12.8662,-5.1955 19.36751,-7.61686 3.83326,-1.58048 4.40819,-1.77782 8.07117,-3.43458 1.30328,-0.58951 5.12202,-2.53716 3.89277,-1.80571 -71.06212,42.28407 -48.87521,28.50313 -33.43953,19.54589 1.17814,-0.59339 7.72234,-4.07494 3.26824,-5.29399 -4.47511,0.46974 -9.0322,0.38814 -13.39727,1.68391 -7.15466,2.32117 -13.89425,5.64372 -20.91358,8.33254 -9.65419,4.30736 -19.11809,9.07276 -29.02502,12.78069 -4.68229,1.13787 -9.3296,2.83041 -12.40393,-2.10774 -1.6119,-2.5893 -1.37404,-2.26932 -0.40827,-4.10934 28.98594,-17.87417 95.0224,-56.00263 7.07053,-4.79489 -1.84201,1.07246 8.08159,-4.31031 5.38838,-3.44275 17.0968,-12.07052 39.10455,-23.22427 55.08524,-32.38621 13.12141,-7.52273 -52.40036,30.23872 -39.2635,22.74298 60.7558,-34.66669 31.02769,-18.63428 53.76984,-30.84661 -128.35343,74.62723 109.06949,-63.24757 -23.24956,13.61394 -2.09141,1.21485 7.17964,-4.13987 6.33267,-3.54202 2.54406,-0.54258 4.06991,1.01325 3.30036,1.08417 -2.10408,0.19397 -4.24644,-0.17474 -6.35222,0.003 -5.40108,-0.003 -10.80206,-0.0545 -16.20311,-0.0532 -6.54222,8.1e-4 -13.08386,-0.0321 -19.62576,0.033 -6.94885,-0.051 -13.898,0.0644 -20.84673,-0.0289 -5.83385,-0.17986 -11.79556,-0.18788 -13.28081,-7.14953 1.51263,-2.82701 5.08213,-5.10771 7.82427,-6.71022 38.41153,-22.44796 32.01641,-18.90764 50.77676,-29.19415 -13.36386,7.74934 -53.52557,30.87508 -40.09153,23.24802 16.13081,-9.15813 32.10015,-18.59799 48.18223,-27.84147 57.33091,-32.952 -138.06354,81.31026 22.47434,-12.39777 7.74117,-4.35689 4.45597,-2.5263 12.14205,-6.77999 1.99824,-1.1059 7.96771,-4.46818 5.99592,-3.31569 -68.4777,40.02453 -45.52291,26.45762 -30.59403,17.67378 0.77618,-0.33764 1.48385,-1.0673 2.32855,-1.01286 0.9361,0.0603 2.72142,1.8304 2.56336,2.1381 -0.22187,0.43216 -4.63628,0.5749 -4.57039,1.07849 -5.12266,1.26919 -10.33175,1.45316 -15.54239,2.19863 -5.99909,1.21751 -11.73996,3.21809 -17.61145,4.89524 -5.45593,1.37923 -9.79016,1.59937 -12.48914,-4.2366 -0.10228,-4.55404 5.76792,-6.38473 8.91263,-8.76316 8.44694,-5.4787 16.38455,-11.72441 24.59272,-17.57307 10.25605,-7.91071 21.10451,-15.02587 30.95117,-23.45896 1.66166,-1.93749 3.19959,-3.97982 4.88469,-5.89695 1.09016,-1.24027 2.94066,-1.78782 0.69651,-1.61139 -3.10739,1.18465 -6.26293,2.1559 -9.2363,3.71323 -4.54487,0.48407 -8.75582,2.2616 -13.08364,3.64051 -5.89447,1.60613 -11.31056,4.01646 -16.62292,7.04077 -3.32672,1.7617 -10.32592,6.17595 -14.12048,5.57056 -0.90885,-0.14524 -1.68061,-0.75088 -2.52088,-1.12633 -5.73548,-7.75168 -1.21232,-5.92397 3.79876,-10.82713 6.23456,-3.41867 11.27959,-9.0824 16.35733,-13.9494 7.64488,-7.52484 16.74152,-13.43253 25.16143,-20.02611 7.69936,-7.08307 16.0371,-13.48534 23.868,-20.44032 0,0 48.07137,-19.91184 48.07137,-19.91184 z"
       inkscape:connector-curvature="0" />
  </g>
  <g
     inkscape:groupmode="layer"
     id="layer4"
     inkscape:label="Layer#2">
    <path
       inkscape:connector-curvature="0"
       style="fill:#ff0000;fill-opacity:1;stroke:#1a1a1a;stroke-width:0.5"
       d=""
       id="path2874" />
    <g
       id="g4906"
       style="filter:url(#filter4961)"
       transform="matrix(1.2010816,0.18034702,-0.18034702,1.2010816,-58.49684,-452.02358)">
      <path
         sodipodi:nodetypes="cscscc"
         id="path2826"
         d="m 289.14286,546.36218 c 0,0 -40.57689,-21.33007 -69.28572,18.57143 -24.98535,34.72636 -18.78456,136.78401 -44.28572,174.28571 33.84529,-35.3837 127.72324,-59.30805 152.85714,-90 28.27643,-34.52941 5.00001,-74.28571 5.00001,-74.28571 l -44.28571,-28.57143 z"
         style="fill:#ffcc00;stroke:#000000;stroke-width:1px;stroke-linecap:butt;stroke-linejoin:miter;stroke-opacity:1"
         inkscape:connector-curvature="0" />
      <path
         sodipodi:nodetypes="csssc"
         id="path3810"
         d="m 180,734.36218 c 49.14779,-58.71881 85.35756,-55.32776 114,-89 21.39133,-25.14778 12,-56 -3,-64 -15,-8 -54.74098,-4.9204 -65,28 -11.16676,35.83324 -11.34384,65.65616 -46,125 z"
         style="fill:#ffff00;stroke:none"
         inkscape:connector-curvature="0" />
      <path
         sodipodi:nodetypes="csssc"
         id="path3814"
         d="m 176.29289,738.59441 c 1.25673,1.8851 50.29904,-82.99443 61.57538,-106.44365 9.91508,-20.61845 25.02645,-47.1301 41.13173,-37.78858 13.0105,7.54646 7.08272,35.35498 -17.42462,54.96016 -20.0964,16.07654 -87.85029,89.78563 -85.28249,89.27207 z"
         style="opacity:0.7;fill:#ffffff;stroke:none"
         inkscape:connector-curvature="0" />
      <path
         inkscape:connector-curvature="0"
         inkscape:export-ydpi="28.700001"
         inkscape:export-xdpi="28.700001"
         inkscape:export-filename="/media/disk-1/home/user/Documents/Projects/Krita.org/krocket.png"
         sodipodi:nodetypes="csssc"
         id="path2822"
         d="m 278.01063,635.8084 c 0,0 48.74792,-1.09151 58.84146,-29.41919 8.05558,-22.60815 -6.71022,-51.47937 -22.00601,-37.66692 -14.77237,13.33981 3.16139,22.81742 2.80865,35.68955 -0.47815,17.44844 -36.9988,31.95353 -39.6441,31.39656 z"
         style="fill:#cccccc;stroke:#000000;stroke-width:1px;stroke-linecap:butt;stroke-linejoin:miter;stroke-opacity:1" />
      <path
         inkscape:connector-curvature="0"
         inkscape:export-ydpi="28.700001"
         inkscape:export-xdpi="28.700001"
         inkscape:export-filename="/media/disk-1/home/user/Documents/Projects/Krita.org/krocket.png"
         style="fill:#cccccc;stroke:#000000;stroke-width:1px;stroke-linecap:butt;stroke-linejoin:miter;stroke-opacity:1"
         d="m 241.73862,607.54559 c 0,0 -3.6811,-48.62099 23.52367,-61.43649 21.71197,-10.22798 51.88885,1.64353 39.63848,18.21681 -11.83118,16.00615 -23.01722,-0.91477 -35.79315,0.69514 -17.31803,2.18225 -28.18198,39.94639 -27.369,42.52454 z"
         id="path2824"
         sodipodi:nodetypes="csssc" />
      <path
         inkscape:connector-curvature="0"
         inkscape:export-ydpi="28.700001"
         inkscape:export-xdpi="28.700001"
         inkscape:export-filename="/media/disk-1/home/user/Documents/Projects/Krita.org/krocket.png"
         inkscape:transform-center-y="8.2283104"
         inkscape:transform-center-x="-0.8790582"
         style="fill:#666666;stroke:none"
         d="m 281.07257,543.95408 c 0,0 -7.13292,-2.12254 -19.81417,6.11865 -12.30098,7.99407 -14.12726,24.58322 -14.12726,24.58322 0,0 5.65595,-16.6286 15.02287,-21.80168 9.36691,-5.17309 19.4727,-4.56223 19.4727,-4.56223 l -0.55414,-4.33796 z"
         id="path3684"
         sodipodi:nodetypes="cscscc" />
      <path
         inkscape:connector-curvature="0"
         inkscape:export-ydpi="28.700001"
         inkscape:export-xdpi="28.700001"
         inkscape:export-filename="/media/disk-1/home/user/Documents/Projects/Krita.org/krocket.png"
         sodipodi:nodetypes="cscscc"
         id="path3682"
         d="m 335.05087,581.53641 c 0,0 4.57023,5.87338 1.5026,20.68287 -2.97565,14.3654 -17.76606,22.09709 -17.76606,22.09709 0,0 13.43503,-11.31371 14.84924,-21.92031 1.41422,-10.6066 -2.82842,-19.79899 -2.82842,-19.79899 l 4.24264,-1.06066 z"
         style="fill:#666666;stroke:none" />
      <path
         inkscape:connector-curvature="0"
         inkscape:export-ydpi="28.700001"
         inkscape:export-xdpi="28.700001"
         inkscape:export-filename="/media/disk-1/home/user/Documents/Projects/Krita.org/krocket.png"
         sodipodi:nodetypes="cscsc"
         id="path2818"
         d="m 479.14286,342.07647 c 0,0 -99.72042,5.72769 -150,87.14285 -55.5442,89.93989 -61.42857,184.28572 -61.42857,184.28572 0,0 101.12394,-29.4292 168.57142,-110.00001 65.32401,-78.03416 47.14286,-159.99999 42.85715,-161.42856 z"
         style="fill:#b3b3b3;stroke:#000000;stroke-width:1px;stroke-linecap:butt;stroke-linejoin:miter;stroke-opacity:1" />
      <path
         inkscape:connector-curvature="0"
         inkscape:export-ydpi="28.700001"
         inkscape:export-xdpi="28.700001"
         inkscape:export-filename="/media/disk-1/home/user/Documents/Projects/Krita.org/krocket.png"
         sodipodi:nodetypes="cscscc"
         id="path3709"
         d="m 423.08566,360.21199 c 0,0 -33.89529,7.78063 -68.58936,43.84061 -44.90128,46.66905 -66.11448,132.58253 -66.11448,132.58253 0,0 18.55236,-55.22255 77.02438,-125.4508 13.07975,-15.70953 51.48257,-41.63465 64.13518,-41.09943 3.35428,-3.90625 -6.45572,-10.49871 -6.45572,-9.87291 z"
         style="opacity:0.5;fill:#ffffff;stroke:none" />
      <path
         inkscape:connector-curvature="0"
         inkscape:export-ydpi="28.700001"
         inkscape:export-xdpi="28.700001"
         inkscape:export-filename="/media/disk-1/home/user/Documents/Projects/Krita.org/krocket.png"
         sodipodi:nodetypes="csssccc"
         id="path2900"
         d="m 287.5,525.36218 c 0.3736,14.33113 -3.768,24.88919 1.6104,31.89932 5.14992,6.71233 10.41035,2.21042 15.3896,5.10068 4.71743,2.73829 2.66879,14.16592 13.41969,17.31342 8.18286,2.39566 31.08031,-5.31342 31.08031,-5.31342 -24.66859,13.66571 -52.70608,26.14696 -80,38.5 3.59592,-28.42086 10.9167,-57.75001 18.5,-87.5 z"
         style="opacity:0.76960784;fill:#d3bc5f;stroke:none" />
      <path
         inkscape:connector-curvature="0"
         inkscape:export-ydpi="28.700001"
         inkscape:export-xdpi="28.700001"
         inkscape:export-filename="/media/disk-1/home/user/Documents/Projects/Krita.org/krocket.png"
         style="fill:#ffd300;fill-opacity:1;stroke:none"
         d="m 272.72807,590.42942 c 0,0 1.58237,-9.49098 4.77858,-15.38647 3.76316,-6.94122 9.44692,-12.19046 9.44692,-12.19046 0,0 -3.33499,7.12027 -6.45519,12.47476 -2.89774,4.97273 -7.47549,15.29731 -7.77031,15.10217 z"
         id="path3680"
         sodipodi:nodetypes="cscsc" />
      <path
         inkscape:connector-curvature="0"
         inkscape:export-ydpi="28.700001"
         inkscape:export-xdpi="28.700001"
         inkscape:export-filename="/media/disk-1/home/user/Documents/Projects/Krita.org/krocket.png"
         sodipodi:nodetypes="cssc"
         id="path2820"
         d="m 242.48062,646.85295 c 6.09828,-16.00834 18.42591,-45.63659 28.43471,-58.64386 30.21101,-39.26176 47.73327,-26.04768 17.85948,13.97107 -10.09959,13.52944 -32.44588,33.61936 -46.29419,44.67279 z"
         style="fill:#cccccc;stroke:#000000;stroke-width:0.72014648px;stroke-linecap:butt;stroke-linejoin:miter;stroke-opacity:1" />
      <path
         inkscape:connector-curvature="0"
         inkscape:export-ydpi="28.700001"
         inkscape:export-xdpi="28.700001"
         inkscape:export-filename="/media/disk-1/home/user/Documents/Projects/Krita.org/krocket.png"
         sodipodi:nodetypes="ccsc"
         id="path3838"
         d="m 420.5,355.61218 c 11.60322,25.51299 32.87893,40.27476 63.14645,44.45711 0,0 8.88117,-52.16568 -1.39645,-60.95711 -5.47387,-4.68232 -56.56562,10.83437 -61.75,16.5 z"
         style="fill:#333333;stroke:#000000;stroke-width:1px;stroke-linecap:butt;stroke-linejoin:miter;stroke-opacity:1" />
      <path
         inkscape:connector-curvature="0"
         inkscape:export-ydpi="28.700001"
         inkscape:export-xdpi="28.700001"
         inkscape:export-filename="/media/disk-1/home/user/Documents/Projects/Krita.org/krocket.png"
         sodipodi:nodetypes="ccccc"
         id="path2848"
         d="m 302.72599,479.86455 c 4.97813,58.63045 81.38245,72.84496 85.61043,69.70053 -11.78512,8.62337 -14.47886,11.1661 -26.26398,18.43529 -38.38104,0.95708 -66.37145,-24.4949 -70.45813,-59.85155 3.72712,-13.81006 4.01752,-13.8008 11.11168,-28.28427 z"
         style="fill:none;stroke:#000000;stroke-width:1px;stroke-linecap:butt;stroke-linejoin:miter;stroke-opacity:1" />
      <path
         inkscape:connector-curvature="0"
         inkscape:export-ydpi="28.700001"
         inkscape:export-xdpi="28.700001"
         inkscape:export-filename="/media/disk-1/home/user/Documents/Projects/Krita.org/krocket.png"
         sodipodi:nodetypes="cc"
         id="path2850"
         d="m 295.65492,497.79476 c 5.4444,30.00327 25.54879,58.86405 74.24621,64.9023"
         style="fill:none;stroke:#000000;stroke-width:1px;stroke-linecap:butt;stroke-linejoin:miter;stroke-opacity:1" />
      <path
         inkscape:connector-curvature="0"
         inkscape:export-ydpi="28.700001"
         inkscape:export-xdpi="28.700001"
         inkscape:export-filename="/media/disk-1/home/user/Documents/Projects/Krita.org/krocket.png"
         id="path2852"
         d="m 303.23106,485.42039 -10.6066,28.03174"
         style="fill:none;stroke:#000000;stroke-width:1px;stroke-linecap:butt;stroke-linejoin:miter;stroke-opacity:1" />
      <path
         inkscape:connector-curvature="0"
         inkscape:export-ydpi="28.700001"
         inkscape:export-xdpi="28.700001"
         inkscape:export-filename="/media/disk-1/home/user/Documents/Projects/Krita.org/krocket.png"
         sodipodi:nodetypes="cc"
         id="path2854"
         d="m 359.54707,567.74782 23.48604,-17.9302"
         style="fill:none;stroke:#000000;stroke-width:1px;stroke-linecap:butt;stroke-linejoin:miter;stroke-opacity:1" />
      <path
         inkscape:connector-curvature="0"
         inkscape:export-ydpi="28.700001"
         inkscape:export-xdpi="28.700001"
         inkscape:export-filename="/media/disk-1/home/user/Documents/Projects/Krita.org/krocket.png"
         sodipodi:nodetypes="cc"
         id="path2856"
         d="m 295.63715,524.52573 10.87691,-28.49874"
         style="fill:#ff0000;stroke:#000000;stroke-width:1px;stroke-linecap:butt;stroke-linejoin:miter;stroke-opacity:1" />
      <path
         inkscape:connector-curvature="0"
         inkscape:export-ydpi="28.700001"
         inkscape:export-xdpi="28.700001"
         inkscape:export-filename="/media/disk-1/home/user/Documents/Projects/Krita.org/krocket.png"
         sodipodi:nodetypes="cc"
         id="path2858"
         d="m 349.193,566.99021 20.70813,-19.69798"
         style="fill:none;stroke:#000000;stroke-width:1px;stroke-linecap:butt;stroke-linejoin:miter;stroke-opacity:1" />
      <path
         inkscape:connector-curvature="0"
         inkscape:export-ydpi="28.700001"
         inkscape:export-xdpi="28.700001"
         inkscape:export-filename="/media/disk-1/home/user/Documents/Projects/Krita.org/krocket.png"
         id="path2860"
         d="m 316.11051,552.84807 16.41497,-23.2335"
         style="fill:none;stroke:#000000;stroke-width:1px;stroke-linecap:butt;stroke-linejoin:miter;stroke-opacity:1" />
      <path
         inkscape:connector-curvature="0"
         inkscape:export-ydpi="28.700001"
         inkscape:export-xdpi="28.700001"
         inkscape:export-filename="/media/disk-1/home/user/Documents/Projects/Krita.org/krocket.png"
         id="path2862"
         d="M 333.2831,563.20214 353.73869,541.7364"
         style="fill:none;stroke:#000000;stroke-width:1px;stroke-linecap:butt;stroke-linejoin:miter;stroke-opacity:1" />
      <path
         inkscape:connector-curvature="0"
         inkscape:export-ydpi="28.700001"
         inkscape:export-xdpi="28.700001"
         inkscape:export-filename="/media/disk-1/home/user/Documents/Projects/Krita.org/krocket.png"
         id="path2864"
         d="m 302.72598,539.71609 13.38453,-25.25381"
         style="fill:none;stroke:#000000;stroke-width:1px;stroke-linecap:butt;stroke-linejoin:miter;stroke-opacity:1" />
      <path
         inkscape:connector-curvature="0"
         inkscape:export-ydpi="28.700001"
         inkscape:export-xdpi="28.700001"
         inkscape:export-filename="/media/disk-1/home/user/Documents/Projects/Krita.org/krocket.png"
         id="path2866"
         d="m 305.93179,523.927 c -2.66132,-4.65201 -4.89173,-9.47311 -4.89173,-10.57364 0,-0.43541 1.17897,-3.88687 2.61992,-7.66991 l 2.61991,-6.87825 2.3364,4.71358 c 1.28502,2.59247 3.25605,6.02464 4.38008,7.62706 1.12403,1.60241 2.04369,3.08054 2.04369,3.28473 0,0.20419 -1.54593,3.30442 -3.4354,6.88941 l -3.4354,6.51815 -2.23747,-3.91113 0,0 z"
         style="fill:#ff0000;fill-opacity:1;stroke:#1a1a1a;stroke-width:0.5" />
      <path
         inkscape:connector-curvature="0"
         inkscape:export-ydpi="28.700001"
         inkscape:export-xdpi="28.700001"
         inkscape:export-filename="/media/disk-1/home/user/Documents/Projects/Krita.org/krocket.png"
         id="path2868"
         d="m 311.58371,548.1434 c -2.03014,-1.99514 -4.58385,-4.80724 -5.6749,-6.24911 l -1.98373,-2.62159 2.12892,-4.12841 c 1.17091,-2.27063 2.17775,-4.19063 2.23742,-4.26667 0.0597,-0.076 1.0215,1.07103 2.13741,2.54904 1.11591,1.47801 3.95637,4.58889 6.31212,6.91305 l 4.2832,4.22576 -2.50064,3.4752 c -1.37534,1.91136 -2.66893,3.53259 -2.87462,3.60273 -0.2057,0.0701 -2.03503,-1.50486 -4.06518,-3.5 z"
         style="fill:#ff0000;fill-opacity:1;stroke:#1a1a1a;stroke-width:0.5" />
      <path
         inkscape:connector-curvature="0"
         inkscape:export-ydpi="28.700001"
         inkscape:export-xdpi="28.700001"
         inkscape:export-filename="/media/disk-1/home/user/Documents/Projects/Krita.org/krocket.png"
         sodipodi:nodetypes="ccsc"
         id="path3816"
         d="m 347.07168,569.16204 c 43.4775,-38.85587 83.23581,-87.00972 123.03658,-135.0574 0,0 -18.38478,46.66905 -48.79037,79.19596 -30.40559,32.52691 -74.24621,57.98276 -74.24621,55.86144 z"
         style="opacity:0.33333333;fill:#000033;fill-opacity:1;stroke:none" />
      <path
         inkscape:connector-curvature="0"
         inkscape:export-ydpi="28.700001"
         inkscape:export-xdpi="28.700001"
         inkscape:export-filename="/media/disk-1/home/user/Documents/Projects/Krita.org/krocket.png"
         id="path2870"
         d="m 335.29006,551.61025 c -5.01886,-2.64282 -10.92257,-6.41008 -11.49384,-7.33442 -0.33612,-0.54385 8.69082,-13.60423 9.18655,-13.2913 0.16901,0.10669 1.76979,1.17249 3.55729,2.36846 1.7875,1.19597 6.09264,3.62894 9.56698,5.4066 l 6.31698,3.23211 -5.74898,6.01209 c -3.16194,3.30665 -5.89208,6.06322 -6.06698,6.12572 -0.1749,0.0625 -2.568,-1.07117 -5.318,-2.51926 z"
         style="fill:#ff0000;fill-opacity:1;stroke:#1a1a1a;stroke-width:0.5" />
      <path
         inkscape:connector-curvature="0"
         inkscape:export-ydpi="28.700001"
         inkscape:export-xdpi="28.700001"
         inkscape:export-filename="/media/disk-1/home/user/Documents/Projects/Krita.org/krocket.png"
         id="path2872"
         d="m 344.79006,565.72305 c -4.50468,-0.99639 -9.77476,-2.63017 -9.6419,-2.9891 0.078,-0.21084 1.44261,-1.74301 3.03237,-3.40481 l 2.89047,-3.02146 5.85953,1.97173 c 3.22274,1.08446 6.25328,1.97505 6.73453,1.9791 0.48125,0.004 0.875,0.10085 0.875,0.21511 0,0.11426 -1.29375,1.45973 -2.875,2.98992 -2.97174,2.8758 -3.42107,3.02347 -6.875,2.25951 l 0,0 z"
         style="fill:#ff0000;fill-opacity:1;stroke:#1a1a1a;stroke-width:0.5" />
      <path
         inkscape:connector-curvature="0"
         inkscape:export-ydpi="28.700001"
         inkscape:export-xdpi="28.700001"
         inkscape:export-filename="/media/disk-1/home/user/Documents/Projects/Krita.org/krocket.png"
         id="path2876"
         d="m 361.42395,560.56619 c -1.57636,-0.33873 -2.94273,-0.71363 -3.03638,-0.8331 -0.0936,-0.11947 2.48964,-2.77944 5.74062,-5.91105 l 5.91087,-5.69383 5.10123,1.08623 c 2.80568,0.59743 5.18215,1.16714 5.28105,1.26604 0.0989,0.0989 -2.92769,2.56118 -6.72573,5.47175 -7.41649,5.68348 -7.37209,5.66679 -12.27166,4.61396 z"
         style="fill:#ff0000;fill-opacity:1;stroke:#1a1a1a;stroke-width:0.5" />
      <path
         inkscape:connector-curvature="0"
         inkscape:export-ydpi="28.700001"
         inkscape:export-xdpi="28.700001"
         inkscape:export-filename="/media/disk-1/home/user/Documents/Projects/Krita.org/krocket.png"
         id="path2878"
         d="m 361.01459,567.35461 c 0.0653,-0.0588 1.4249,-1.10096 3.0213,-2.31582 l 2.90256,-2.20885 0.77025,0.12405 c 0.42363,0.0682 0.79068,0.14447 0.81565,0.16945 0.0527,0.0527 -2.21739,1.54919 -4.84459,3.19361 -1.47629,0.92404 -1.92061,1.14454 -2.30625,1.14454 -0.27398,0 -0.42703,-0.0456 -0.35892,-0.10698 z"
         style="fill:#ff0000;fill-opacity:1;stroke:#1a1a1a;stroke-width:0.125" />
      <path
         inkscape:connector-curvature="0"
         inkscape:export-ydpi="28.700001"
         inkscape:export-xdpi="28.700001"
         inkscape:export-filename="/media/disk-1/home/user/Documents/Projects/Krita.org/krocket.png"
         id="path2880"
         d="m 295.03228,521.49284 c -0.64345,-2.06586 -1.04311,-3.55375 -1.53611,-5.71875 l -0.42696,-1.875 1.71159,-4.53125 c 0.94137,-2.49219 1.74672,-4.53125 1.78968,-4.53125 0.043,0 0.15233,0.29531 0.24306,0.65625 0.32106,1.27726 1.49609,5.04992 1.9952,6.406 l 0.50597,1.37475 -1.84068,4.8431 c -1.01238,2.6637 -1.873,4.84351 -1.91249,4.844 -0.0395,5e-4 -0.27765,-0.66004 -0.52926,-1.46785 z"
         style="fill:#ff0000;fill-opacity:1;stroke:#1a1a1a;stroke-width:0.125" />
      <path
         inkscape:connector-curvature="0"
         inkscape:export-ydpi="28.700001"
         inkscape:export-xdpi="28.700001"
         inkscape:export-filename="/media/disk-1/home/user/Documents/Projects/Krita.org/krocket.png"
         id="path2882"
         d="m 296.77799,500.46159 c -0.0716,-0.19772 -0.59989,-2.72235 -0.615,-2.93894 -0.0132,-0.18979 2.96382,-7.6259 4.69486,-11.72682 l 1.52096,-3.60326 0.21751,1.41576 c 0.14795,0.96301 0.17899,1.49571 0.0971,1.66576 -0.0663,0.1375 -1.3647,3.54063 -2.88544,7.5625 -1.52074,4.02188 -2.80932,7.425 -2.86351,7.5625 -0.0784,0.19879 -0.11245,0.21159 -0.16643,0.0625 z"
         style="fill:#ff0000;fill-opacity:1;stroke:#1a1a1a;stroke-width:0.125" />
      <path
         inkscape:connector-curvature="0"
         inkscape:export-ydpi="28.700001"
         inkscape:export-xdpi="28.700001"
         inkscape:export-filename="/media/disk-1/home/user/Documents/Projects/Krita.org/krocket.png"
         id="path2884"
         d="m 298.80552,507.56698 c -0.56949,-1.91224 -1.03543,-3.92637 -1.03543,-4.47584 0,-0.54947 1.19969,-4.19559 2.66597,-8.10249 l 2.66598,-7.10345 1.09077,4.1564 c 0.59993,2.28602 1.08775,4.35931 1.08403,4.60732 -0.006,0.43169 -5.00944,13.86472 -5.29681,14.22197 -0.0765,0.0951 -0.60502,-1.39166 -1.17451,-3.30391 z"
         style="fill:#ffffff;fill-opacity:1;stroke:#1a1a1a;stroke-width:0.5" />
      <path
         inkscape:connector-curvature="0"
         inkscape:export-ydpi="28.700001"
         inkscape:export-xdpi="28.700001"
         inkscape:export-filename="/media/disk-1/home/user/Documents/Projects/Krita.org/krocket.png"
         id="path2886"
         d="m 292.45651,510.15927 c -0.11436,-0.85467 -0.20777,-1.70023 -0.2076,-1.87901 3.9e-4,-0.39736 2.97817,-8.61297 3.12144,-8.61198 0.0365,2.6e-4 0.21388,0.67787 0.39416,1.50581 l 0.32778,1.50533 -1.62221,4.27545 c -0.89222,2.3515 -1.66349,4.3841 -1.71394,4.5169 -0.0584,0.15362 -0.16734,-0.32378 -0.29963,-1.3125 l 0,0 z"
         style="fill:#ffffff;fill-opacity:1;stroke:#1a1a1a;stroke-width:0.125" />
      <path
         inkscape:connector-curvature="0"
         inkscape:export-ydpi="28.700001"
         inkscape:export-xdpi="28.700001"
         inkscape:export-filename="/media/disk-1/home/user/Documents/Projects/Krita.org/krocket.png"
         id="path2888"
         d="m 301.8683,536.51669 c -2.06809,-3.38803 -4.22256,-7.74726 -5.36186,-10.84887 l -0.34437,-0.9375 1.79108,-4.6875 c 0.9851,-2.57812 1.8344,-4.78696 1.88733,-4.90853 0.0713,-0.16385 0.28651,0.22421 0.83168,1.5 1.53813,3.59953 3.91841,8.08175 5.94272,11.19056 l 0.97068,1.4907 -2.30994,4.36364 c -1.27046,2.4 -2.34724,4.36363 -2.39285,4.36363 -0.0456,0 -0.50211,-0.68676 -1.01447,-1.52613 l 0,0 z"
         style="fill:#ffffff;fill-opacity:1;stroke:#1a1a1a;stroke-width:0.125" />
      <path
         inkscape:connector-curvature="0"
         inkscape:export-ydpi="28.700001"
         inkscape:export-xdpi="28.700001"
         inkscape:export-filename="/media/disk-1/home/user/Documents/Projects/Krita.org/krocket.png"
         id="path2890"
         d="m 320.86866,542.39447 c -4.19151,-3.62435 -7.49438,-7.16129 -10.71431,-11.47364 l -1.23822,-1.6583 3.6978,-6.98675 3.6978,-6.98675 0.29423,0.34565 c 3.15333,3.70443 5.7484,6.40166 8.58077,8.91858 1.59948,1.42133 4.86886,4.08363 5.90358,4.80735 0.29072,0.20334 0.52979,0.40685 0.53125,0.45223 0.002,0.0688 -9.23836,13.22544 -9.48912,13.51056 -0.045,0.0512 -0.61372,-0.36683 -1.26378,-0.92893 l 0,0 z"
         style="fill:#ffffff;fill-opacity:1;stroke:#1a1a1a;stroke-width:0.125" />
      <path
         inkscape:connector-curvature="0"
         inkscape:export-ydpi="28.700001"
         inkscape:export-xdpi="28.700001"
         inkscape:export-filename="/media/disk-1/home/user/Documents/Projects/Krita.org/krocket.png"
         id="path2892"
         d="m 331.43673,561.85481 c -4.73696,-2.01809 -9.3153,-4.64186 -13.47314,-7.72122 -1.22479,-0.9071 -1.33344,-1.01978 -1.1875,-1.23144 0.0883,-0.12814 1.36687,-1.93931 2.84115,-4.02483 l 2.68051,-3.79185 1.29466,0.97468 c 3.03474,2.2847 7.03491,4.80036 10.65682,6.70196 1.54948,0.81352 4.53379,2.23465 5.32185,2.53427 0.32521,0.12364 0.30864,0.14609 -1.54444,2.09196 -1.03025,1.08184 -2.56882,2.68513 -3.41904,3.56288 l -1.54587,1.59589 -1.625,-0.6923 z"
         style="fill:#ffffff;fill-opacity:1;stroke:#1a1a1a;stroke-width:0.125" />
      <path
         inkscape:connector-curvature="0"
         inkscape:export-ydpi="28.700001"
         inkscape:export-xdpi="28.700001"
         inkscape:export-filename="/media/disk-1/home/user/Documents/Projects/Krita.org/krocket.png"
         id="path2894"
         d="m 354.31173,559.16256 c -0.9625,-0.25173 -2.71806,-0.74657 -3.90125,-1.09964 -3.16916,-0.94569 -8.45096,-2.86089 -8.43433,-3.0583 0.0161,-0.19089 11.91628,-12.5868 12.08345,-12.5868 0.0921,0 0.6264,0.19643 1.18731,0.43651 2.73918,1.17242 9.28856,3.45964 12.60518,4.40207 0.43469,0.12352 0.78226,0.28068 0.77238,0.34925 -0.0138,0.0961 -8.70157,8.4145 -12.00024,11.49014 l -0.5625,0.52447 -1.75,-0.4577 z"
         style="fill:#ffffff;fill-opacity:1;stroke:#1a1a1a;stroke-width:0.125" />
      <path
         inkscape:connector-curvature="0"
         inkscape:export-ydpi="28.700001"
         inkscape:export-xdpi="28.700001"
         inkscape:export-filename="/media/disk-1/home/user/Documents/Projects/Krita.org/krocket.png"
         id="path2896"
         d="m 355.43673,567.33012 c -0.4125,-0.0222 -1.65695,-0.1241 -2.76545,-0.22636 -1.1085,-0.10227 -2.11162,-0.18594 -2.22917,-0.18594 -0.11754,0 -0.19496,-0.0422 -0.17204,-0.0937 0.0349,-0.0784 4.53541,-4.39091 5.80903,-5.56628 l 0.39237,-0.3621 2.67013,0.5629 c 1.46857,0.3096 3.4394,0.69233 4.37961,0.85051 0.94021,0.15818 1.68543,0.32651 1.65604,0.37407 -0.0294,0.0476 -1.31391,1.04689 -2.85447,2.22073 -1.54056,1.17384 -2.88645,2.21968 -2.99086,2.32409 -0.1878,0.1878 -1.61293,0.22517 -3.89519,0.10213 l 0,0 z"
         style="fill:#ffffff;fill-opacity:1;stroke:#1a1a1a;stroke-width:0.125" />
      <path
         inkscape:connector-curvature="0"
         inkscape:export-ydpi="28.700001"
         inkscape:export-xdpi="28.700001"
         inkscape:export-filename="/media/disk-1/home/user/Documents/Projects/Krita.org/krocket.png"
         id="path2898"
         d="m 369.01647,562.01412 c -0.65198,-0.0999 -0.76458,-0.15044 -0.625,-0.28055 0.24438,-0.22779 14.37033,-10.99361 14.67138,-11.18151 0.18913,-0.11805 0.5741,-0.13082 1.55969,-0.0517 l 1.30858,0.105 -3.62219,2.69715 c -6.39459,4.76152 -12.1796,8.88839 -12.40505,8.84943 -0.0507,-0.009 -0.45002,-0.0708 -0.88741,-0.13778 z"
         style="fill:#ffffff;fill-opacity:1;stroke:#1a1a1a;stroke-width:0.125" />
      <path
         inkscape:connector-curvature="0"
         inkscape:export-ydpi="28.700001"
         inkscape:export-xdpi="28.700001"
         inkscape:export-filename="/media/disk-1/home/user/Documents/Projects/Krita.org/krocket.png"
         sodipodi:nodetypes="cccc"
         id="path2902"
         d="m 242.59665,598.86052 c 3.4274,-13.03763 16.25523,-40.17202 31.99659,-34.82501 l 1.06066,-5.65685 c -22.97204,0.009 -28.0333,20.22416 -33.05725,40.48186 z"
         style="fill:#ffd300;fill-opacity:1;stroke:none" />
      <path
         inkscape:connector-curvature="0"
         inkscape:export-ydpi="28.700001"
         inkscape:export-xdpi="28.700001"
         inkscape:export-filename="/media/disk-1/home/user/Documents/Projects/Krita.org/krocket.png"
         inkscape:transform-center-y="0.971385"
         inkscape:transform-center-x="9.7603523"
         style="fill:#ffd300;fill-opacity:1;stroke:none"
         d="m 286.4311,634.28275 c 12.67308,-4.59566 38.53227,-19.83148 31.7797,-35.02305 l 5.53735,-1.56931 c 2.0744,22.87819 -17.59844,29.75192 -37.31705,36.59236 z"
         id="path3676"
         sodipodi:nodetypes="cccc" />
      <path
         inkscape:connector-curvature="0"
         inkscape:export-ydpi="28.700001"
         inkscape:export-xdpi="28.700001"
         inkscape:export-filename="/media/disk-1/home/user/Documents/Projects/Krita.org/krocket.png"
         sodipodi:nodetypes="cscsc"
         id="path3678"
         d="m 289.75,601.36218 c 0,0 8.98502,-3.44266 14.125,-7.75 6.0517,-5.07137 10.0625,-11.6875 10.0625,-11.6875 0,0 -6.3125,4.6875 -10.9375,8.8125 -4.29525,3.8309 -13.5,10.375 -13.25,10.625 z"
         style="fill:#ffd300;fill-opacity:1;stroke:none" />
      <path
         inkscape:connector-curvature="0"
         inkscape:export-ydpi="28.700001"
         inkscape:export-xdpi="28.700001"
         inkscape:export-filename="/media/disk-1/home/user/Documents/Projects/Krita.org/krocket.png"
         sodipodi:nodetypes="csssc"
         id="path3707"
         d="m 251.96582,632.44809 c 0,0 19.09188,-40.65863 27.57716,-50.55813 8.48528,-9.89949 19.49393,-16.33362 21.56677,-14.84925 3.37132,2.41422 -4.21372,16.04516 -7.96016,22.1023 -7.11009,11.4954 -28.1023,29.06281 -41.18377,43.30508 z"
         style="fill:#666666;fill-opacity:1;stroke:none" />
      <path
         inkscape:connector-curvature="0"
         inkscape:export-ydpi="28.700001"
         inkscape:export-xdpi="28.700001"
         inkscape:export-filename="/media/disk-1/home/user/Documents/Projects/Krita.org/krocket.png"
         sodipodi:nodetypes="cccc"
         id="path3840"
         d="m 504.5,309.86218 -32.5,29 c 2.79036,6.90495 7.71002,10.26108 14.5,10.5 l 18,-39.5 z"
         style="fill:#333333;stroke:#000000;stroke-width:1px;stroke-linecap:butt;stroke-linejoin:miter;stroke-opacity:1" />
      <path
         inkscape:connector-curvature="0"
         inkscape:export-ydpi="28.700001"
         inkscape:export-xdpi="28.700001"
         inkscape:export-filename="/media/disk-1/home/user/Documents/Projects/Krita.org/krocket.png"
         sodipodi:nodetypes="cccccc"
         id="path3842"
         d="m 503.34228,310.0074 -30.05204,30.40559 c -17.78037,3.9859 -34.30486,11.11147 -50.20458,19.79899 l 6.71751,10.60661 c 13.28823,-13.37509 29.27297,-21.35713 46.3155,-27.22362 l 27.22361,-33.58757 z"
         style="opacity:0.7;fill:#d9d9d9;fill-opacity:1;stroke:none" />
      <path
         inkscape:connector-curvature="0"
         inkscape:export-ydpi="28.700001"
         inkscape:export-xdpi="28.700001"
         inkscape:export-filename="/media/disk-1/home/user/Documents/Projects/Krita.org/krocket.png"
         sodipodi:nodetypes="cccccc"
         id="path3844"
         d="m 468.5,395.86218 c 7.65306,-13.71854 10.04664,-31.38169 12.5,-49 l 14.5,-23 -12,25.5 c -0.55002,17.46666 -1.51002,34.65999 -6,49.5 l -9,-3 z"
         style="opacity:0.44117647;fill:#000000;stroke:#000000;stroke-width:1px;stroke-linecap:butt;stroke-linejoin:miter;stroke-opacity:1" />
      <path
         inkscape:connector-curvature="0"
         inkscape:export-ydpi="28.700001"
         inkscape:export-xdpi="28.700001"
         inkscape:export-filename="/media/disk-1/home/user/Documents/Projects/Krita.org/krocket.png"
         id="path3866"
         d="m 335,519.36218 c 0,0 15,-35 43,-69 28,-34 76,-77 76,-77 0,0 -40,59 -63,91 -23,32 -56,58 -56,55 z"
         style="opacity:0.19117647;fill:#ffffff;stroke:none" />
      <g
         transform="translate(446.89149,360.62446)"
         id="g4843">
        <path
           sodipodi:type="arc"
           style="fill:#1a1a1a;fill-opacity:1;stroke:#1a1a1a;stroke-width:1"
           id="path2832"
           sodipodi:cx="449.51788"
           sodipodi:cy="415.96606"
           sodipodi:rx="24.243662"
           sodipodi:ry="24.243662"
           d="m 473.76155,415.96606 c 0,13.38941 -10.85426,24.24367 -24.24367,24.24367 -13.3894,0 -24.24366,-10.85426 -24.24366,-24.24367 0,-13.3894 10.85426,-24.24366 24.24366,-24.24366 13.38941,0 24.24367,10.85426 24.24367,24.24366 z"
           transform="matrix(0.73241398,0.55273334,-0.60287249,0.79885219,-153.12355,-470.83349)" />
        <path
           sodipodi:type="arc"
           style="fill:url(#linearGradient3676);fill-opacity:1;stroke:#1a1a1a"
           id="path2834"
           sodipodi:cx="432.97662"
           sodipodi:cy="412.30426"
           sodipodi:rx="20.329321"
           sodipodi:ry="20.329321"
           d="m 453.30594,412.30426 c 0,11.22757 -9.10174,20.32932 -20.32932,20.32932 -11.22757,0 -20.32932,-9.10175 -20.32932,-20.32932 0,-11.22757 9.10175,-20.32932 20.32932,-20.32932 11.22758,0 20.32932,9.10175 20.32932,20.32932 z"
           transform="matrix(0.64805484,0.48906974,-0.53343391,0.70684075,-135.50537,-393.40337)" />
        <path
           transform="matrix(0.73241398,0.55273334,-0.60287249,0.79885219,-153.12355,-470.83349)"
           d="m 470.81748,415.96606 c 0,11.61089 -9.53616,21.02338 -21.2996,21.02338 -11.76344,0 -21.29959,-9.41249 -21.29959,-21.02338 0,-11.61088 9.53615,-21.02337 21.29959,-21.02337 11.76344,0 21.2996,9.41249 21.2996,21.02337 z"
           sodipodi:ry="21.023373"
           sodipodi:rx="21.299593"
           sodipodi:cy="415.96606"
           sodipodi:cx="449.51788"
           id="path3733"
           style="fill:none;stroke:#ffffff;stroke-width:2.14757705;stroke-miterlimit:4;stroke-dasharray:none"
           sodipodi:type="arc" />
      </g>
    </g>
  </g>
</svg>
